<?xml version="1.0" encoding="UTF-8" standalone="no"?>
<svg
   xmlns:dc="http://purl.org/dc/elements/1.1/"
   xmlns:cc="http://creativecommons.org/ns#"
   xmlns:rdf="http://www.w3.org/1999/02/22-rdf-syntax-ns#"
   xmlns:svg="http://www.w3.org/2000/svg"
   xmlns="http://www.w3.org/2000/svg"
   xmlns:sodipodi="http://sodipodi.sourceforge.net/DTD/sodipodi-0.dtd"
   xmlns:inkscape="http://www.inkscape.org/namespaces/inkscape"
   version="1.1"
   id="svg2"
   xml:space="preserve"
   width="628.01331"
   height="542.12"
   viewBox="0 0 628.01331 542.12"
   sodipodi:docname="PORQUE-Logo-01-CMYK.svg"
   inkscape:version="1.0.2 (e86c870879, 2021-01-15)"><metadata
     id="metadata8"><rdf:RDF><cc:Work
         rdf:about=""><dc:format>image/svg+xml</dc:format><dc:type
           rdf:resource="http://purl.org/dc/dcmitype/StillImage" /><dc:title></dc:title></cc:Work></rdf:RDF></metadata><defs
     id="defs6" /><sodipodi:namedview
     pagecolor="#ffffff"
     bordercolor="#666666"
     borderopacity="1"
     objecttolerance="10"
     gridtolerance="10"
     guidetolerance="10"
     inkscape:pageopacity="0"
     inkscape:pageshadow="2"
     inkscape:window-width="1920"
     inkscape:window-height="1032"
     id="namedview4"
     showgrid="false"
     inkscape:zoom="1.6398583"
     inkscape:cx="314.00665"
     inkscape:cy="271.06"
     inkscape:window-x="0"
     inkscape:window-y="222"
     inkscape:window-maximized="0"
     inkscape:current-layer="g10" /><g
     id="g10"
     inkscape:groupmode="layer"
     inkscape:label="ink_ext_XXXXXX"
     transform="matrix(1.3333333,0,0,-1.3333333,0,542.12)"><g
       id="g12"
       transform="scale(0.1)"><path
         d="m 2701.18,3185.3 c 0,-39.66 -31.48,-71.82 -70.32,-71.82 -38.83,0 -70.32,32.16 -70.32,71.82 0,39.66 31.49,71.82 70.32,71.82 38.84,0 70.32,-32.16 70.32,-71.82"
         style="fill:#51aee5;fill-opacity:1;fill-rule:nonzero;stroke:none"
         id="path14" /><path
         d="m 2882.2,3185.3 c 0,-39.66 -31.49,-71.82 -70.32,-71.82 -38.84,0 -70.32,32.16 -70.32,71.82 0,39.66 31.48,71.82 70.32,71.82 38.83,0 70.32,-32.16 70.32,-71.82"
         style="fill:#51aee5;fill-opacity:1;fill-rule:nonzero;stroke:none"
         id="path16" /><path
         d="m 3063.21,3185.3 c 0,-39.66 -31.48,-71.82 -70.32,-71.82 -38.84,0 -70.32,32.16 -70.32,71.82 0,39.66 31.48,71.82 70.32,71.82 38.84,0 70.32,-32.16 70.32,-71.82"
         style="fill:#51aee5;fill-opacity:1;fill-rule:nonzero;stroke:none"
         id="path18" /><path
         d="m 881.523,2326.22 c -65.398,128.43 -96.988,273.71 -90.898,419.27 19.746,472.08 418.605,839.89 899.405,819.79 33.36,-1.37 66.18,-4.66 98.41,-9.65 311.88,-34.63 522.63,-235.08 625.86,-505.1 l 45.37,-82.73 c 18.57,-40.97 43.89,-78.8 76.18,-110.33 71.33,-69.66 169.59,-108.82 290.24,-108.82 267.54,0 453.13,198.09 453.13,467.79 0,269.71 -185.59,467.81 -453.13,467.81 -318.23,0 -433.48,-256.63 -442.21,-297.69 -43.64,64.83 -159.69,171.28 -310.77,223.85 113.88,245.18 344.15,412.05 639.8,444.87 32.65,5.06 65.89,8.4 99.67,9.79 486.97,20.34 890.95,-352.18 910.94,-830.31 6.17,-147.43 -25.82,-294.58 -92.06,-424.65 l -2.46,-5.06 82.27,-559.56 -543.18,145.94 c -90.18,-34.98 -185.33,-54.72 -283.04,-58.73 -12.33,-0.5 -24.57,-0.76 -36.79,-0.76 -0.01,0 -0.04,0 -0.04,0 -379,0.02 -673.06,232.68 -792.79,567.94 -8.35,23.39 -17.73,46.38 -28.74,68.66 -0.93,1.88 -1.88,3.8 -2.84,5.75 -63.07,127.5 -191.98,211.74 -335.32,214.87 -3.92,0.09 -7.87,0.13 -11.83,0.13 -264.15,0 -447.39,-195.59 -447.39,-461.88 0,-266.29 183.27,-465.69 447.39,-461.88 308.91,4.46 425.29,253.68 436.93,285.37 69.83,-103.72 155.66,-164.22 308.32,-235.46 -144.29,-274.08 -434.28,-461.32 -767.1,-461.34 h -0.04 c -12.07,0 -24.16,0.26 -36.33,0.75 -96.47,3.96 -190.41,23.46 -279.45,57.99 l -536.311,-144.09 81.234,552.47 -2.43,5"
         style="fill:#3b6281;fill-opacity:1;fill-rule:nonzero;stroke:none"
         id="path20" /><path
         d="m 1567.69,2704.61 c 0,-39.66 -31.48,-71.82 -70.32,-71.82 -38.84,0 -70.32,32.16 -70.32,71.82 0,39.67 31.48,71.82 70.32,71.82 38.84,0 70.32,-32.15 70.32,-71.82"
         style="fill:#51ab7d;fill-opacity:1;fill-rule:nonzero;stroke:none"
         id="path22" /><path
         d="m 1748.7,2704.61 c 0,-39.66 -31.48,-71.82 -70.32,-71.82 -38.84,0 -70.32,32.16 -70.32,71.82 0,39.67 31.48,71.82 70.32,71.82 38.84,0 70.32,-32.15 70.32,-71.82"
         style="fill:#51ab7d;fill-opacity:1;fill-rule:nonzero;stroke:none"
         id="path24" /><path
         d="m 1929.71,2704.61 c 0,-39.66 -31.48,-71.82 -70.32,-71.82 -38.83,0 -70.32,32.16 -70.32,71.82 0,39.67 31.49,71.82 70.32,71.82 38.84,0 70.32,-32.15 70.32,-71.82"
         style="fill:#51ab7d;fill-opacity:1;fill-rule:nonzero;stroke:none"
         id="path26" /><path
         d="m 241.359,936.719 h 84.852 c 35.117,0 62.168,5.711 81.187,17.172 19.016,11.461 31.934,29.64 38.778,54.529 6.785,24.9 10.238,56.78 10.238,95.63 0,36.83 -2.707,67.72 -8.066,92.61 -5.356,24.89 -17.321,44.32 -35.832,58.27 -18.539,13.95 -47.797,20.91 -87.766,20.91 H 241.359 Z M 0,239.031 V 1449.15 h 375.941 c 71.188,0 129.219,-13.7 174.071,-41.09 44.851,-27.39 78.269,-66.99 100.207,-118.76 21.961,-51.79 32.914,-114.56 32.914,-188.23 0,-86.66 -14.406,-154.41 -43.153,-203.199 C 611.199,849.059 571.977,814.441 522.246,794.039 472.484,773.621 415.434,763.41 351.09,763.41 H 241.359 V 239.031 H 0"
         style="fill:#353434;fill-opacity:1;fill-rule:nonzero;stroke:none"
         id="path28" /><path
         d="m 1138.06,400.359 c 31.19,0 54.1,7.243 68.75,21.68 14.61,14.43 24.34,33.859 29.25,58.262 4.85,24.41 7.32,50.551 7.32,78.449 v 572.19 c 0,27.88 -2.47,53.77 -7.32,77.7 -4.91,23.89 -14.64,43.07 -29.25,57.5 -14.65,14.44 -37.56,21.68 -68.75,21.68 -29.26,0 -51.22,-7.24 -65.83,-21.68 -14.65,-14.43 -24.41,-33.61 -29.26,-57.5 -4.91,-23.93 -7.32,-49.82 -7.32,-77.7 V 558.75 c 0,-27.898 2.2,-54.039 6.58,-78.449 4.4,-24.403 13.9,-43.832 28.54,-58.262 14.61,-14.437 37.05,-21.68 67.29,-21.68 z m 0,-177.781 c -86.81,0 -155.56,15.961 -206.275,47.813 -50.711,31.89 -87.019,77.449 -108.984,136.718 C 800.867,466.352 789.887,537.328 789.887,620 v 451.19 c 0,82.64 10.98,153.34 32.914,212.13 21.965,58.75 58.273,103.58 108.984,134.47 50.715,30.85 119.465,46.32 206.275,46.32 87.76,0 157.23,-15.69 208.44,-47.08 51.19,-31.37 87.77,-76.18 109.7,-134.44 21.94,-58.27 32.92,-128.76 32.92,-211.4 V 620 c 0,-82.672 -10.98,-153.648 -32.92,-212.891 -21.93,-59.269 -58.51,-104.828 -109.7,-136.718 -51.21,-31.852 -120.68,-47.813 -208.44,-47.813"
         style="fill:#353434;fill-opacity:1;fill-rule:nonzero;stroke:none"
         id="path30" /><path
         d="m 1891.37,933.738 h 70.23 c 38.99,0 69.7,6.442 92.14,19.422 22.44,12.918 38.28,32.621 47.56,59 9.26,26.38 13.9,59.03 13.9,97.87 0,55.75 -10.03,98.33 -30,127.72 -20,29.37 -57.29,44.08 -111.9,44.08 h -81.93 z M 1650.01,239.031 V 1449.15 h 307.19 c 79.97,0 148.48,-9.21 205.53,-27.63 57.05,-18.45 100.95,-51.06 131.66,-97.87 30.71,-46.81 46.07,-111.55 46.07,-194.19 0,-49.82 -4.17,-93.9 -12.44,-132.222 -8.3,-38.359 -22.92,-71.738 -43.87,-100.129 -20.98,-28.347 -50.47,-51.031 -88.51,-67.961 l 163.84,-590.117 h -247.23 l -136.03,548.297 h -84.85 V 239.031 h -241.36"
         style="fill:#353434;fill-opacity:1;fill-rule:nonzero;stroke:none"
         id="path32" /><path
         d="m 2833.42,400.359 c 31.19,0 54.11,7.243 68.75,21.68 14.61,14.43 24.34,33.859 29.25,58.262 4.85,24.41 7.32,50.551 7.32,78.449 v 572.19 c 0,27.88 -2.47,53.77 -7.32,77.7 -4.91,23.89 -14.64,43.07 -29.25,57.5 -14.64,14.44 -37.56,21.68 -68.75,21.68 -30.24,0 -52.68,-7.24 -67.29,-21.68 -14.64,-14.43 -24.14,-33.61 -28.54,-57.5 -4.37,-23.93 -6.58,-49.82 -6.58,-77.7 V 558.75 c 0,-27.898 2.21,-54.039 6.58,-78.449 4.4,-24.403 13.9,-43.832 28.54,-58.262 14.61,-14.437 37.05,-21.68 67.29,-21.68 z M 3095.26,0 c -22.44,10.9688 -48.28,27.8711 -77.53,50.7891 -29.26,22.9218 -58.03,49.5389 -86.31,79.9099 -28.3,30.391 -52.2,61.52 -71.69,93.371 -3.9,-0.968 -8.04,-1.492 -12.41,-1.492 -4.41,0 -9.05,0 -13.9,0 -86.81,0 -155.56,15.961 -206.27,47.813 -50.72,31.89 -87.02,77.449 -108.99,136.718 -21.93,59.243 -32.91,130.219 -32.91,212.891 v 451.19 c 0,82.64 10.98,153.34 32.91,212.13 21.97,58.75 58.27,103.58 108.99,134.47 50.71,30.85 119.46,46.32 206.27,46.32 87.77,0 157.23,-15.69 208.45,-47.08 51.18,-31.37 87.76,-76.18 109.69,-134.44 21.94,-58.27 32.92,-128.76 32.92,-211.4 V 620 c 0,-57.781 -5.12,-109.82 -15.36,-156.141 -10.23,-46.289 -27.05,-86.41 -50.47,-120.238 -23.39,-33.891 -54.61,-60.762 -93.6,-80.699 12.65,-13.953 25.8,-27.883 39.49,-41.832 13.63,-13.918 27.29,-26.899 40.95,-38.84 13.64,-11.949 26.82,-21.891 39.5,-29.879 L 3095.26,0"
         style="fill:#353434;fill-opacity:1;fill-rule:nonzero;stroke:none"
         id="path34" /><path
         d="m 3678.9,222.578 c -89.73,0 -159.46,15.692 -209.19,47.082 -49.73,31.371 -84.61,76.66 -104.58,135.93 -20,59.269 -30,131.219 -30,215.898 v 827.662 h 238.44 V 587.109 c 0,-29.879 2.21,-59.269 6.58,-88.14 4.41,-28.879 14.14,-52.278 29.26,-70.219 15.12,-17.93 38.27,-26.871 69.49,-26.871 32.17,0 55.8,8.941 70.95,26.871 15.09,17.941 24.61,41.34 28.51,70.219 3.9,28.871 5.86,58.261 5.86,88.14 v 862.041 h 238.45 V 621.488 c 0,-84.679 -10.03,-156.629 -30,-215.898 -20,-59.27 -54.85,-104.559 -104.58,-135.93 -49.76,-31.39 -119.49,-47.082 -209.19,-47.082"
         style="fill:#353434;fill-opacity:1;fill-rule:nonzero;stroke:none"
         id="path36" /><path
         d="M 4190.85,239.031 V 1449.15 h 516.38 v -170.3 H 4432.21 V 957.629 h 212.1 V 785.84 h -212.1 V 406.352 h 277.94 V 239.031 h -519.3"
         style="fill:#353434;fill-opacity:1;fill-rule:nonzero;stroke:none"
         id="path38" /></g></g></svg>
